<?xml version="1.0" encoding="iso-8859-1"?>
<!-- Generator: Adobe Illustrator 19.0.0, SVG Export Plug-In . SVG Version: 6.00 Build 0)  -->
<svg version="1.1" id="Layer_1" xmlns="http://www.w3.org/2000/svg" xmlns:xlink="http://www.w3.org/1999/xlink" x="0px" y="0px"
	 viewBox="0 0 512 512" style="enable-background:new 0 0 512 512;" xml:space="preserve">
<path style="fill:#A5A5A5;" d="M503.916,256v43.116H191.326V256c0-11.906,9.651-21.558,21.558-21.558h269.474
	C494.264,234.442,503.916,244.094,503.916,256z"/>
<path style="fill:#FED766;" d="M503.916,288.337v194.021c0,11.906-9.651,21.558-21.558,21.558H212.884
	c-11.906,0-21.558-9.651-21.558-21.558V288.337h43.116v-64.674c0-5.953,4.826-10.779,10.779-10.779h64.674
	c5.953,0,10.779,4.826,10.779,10.779v64.674H503.916z"/>
<path style="fill:#E8BA52;" d="M466.189,471.579H229.053c-2.976,0-5.389-2.413-5.389-5.389v-86.232c0-2.976,2.413-5.389,5.389-5.389
	h237.137c2.976,0,5.389,2.413,5.389,5.389v86.232C471.579,469.165,469.165,471.579,466.189,471.579z M471.579,347.621v-10.779
	c0-2.976-2.413-5.389-5.389-5.389H229.053c-2.976,0-5.389,2.413-5.389,5.389v10.779c0,2.976,2.413,5.389,5.389,5.389h237.137
	C469.165,353.01,471.579,350.597,471.579,347.621z"/>
<path style="fill:#A5A5A5;" d="M412.295,153.6v48.505H99.705V153.6c0-11.906,9.651-21.558,21.558-21.558h269.474
	C402.643,132.042,412.295,141.694,412.295,153.6z"/>
<path style="fill:#A3CCAA;" d="M412.295,185.937v194.021c0,11.906-9.651,21.558-21.558,21.558H121.263
	c-11.906,0-21.558-9.651-21.558-21.558V185.937h43.116v-64.674c0-5.953,4.826-10.779,10.779-10.779h64.674
	c5.953,0,10.779,4.826,10.779,10.779v64.674H412.295z"/>
<path style="fill:#80A886;" d="M374.568,369.179H137.432c-2.976,0-5.389-2.413-5.389-5.389v-86.232c0-2.976,2.413-5.389,5.389-5.389
	h237.137c2.976,0,5.389,2.413,5.389,5.389v86.232C379.958,366.766,377.544,369.179,374.568,369.179z M379.958,245.221v-10.779
	c0-2.976-2.413-5.389-5.389-5.389H137.432c-2.976,0-5.389,2.413-5.389,5.389v10.779c0,2.976,2.413,5.389,5.389,5.389h237.137
	C377.544,250.611,379.958,248.197,379.958,245.221z"/>
<path style="fill:#A5A5A5;" d="M320.674,51.2v43.116H8.084V51.2c0-11.906,9.651-21.558,21.558-21.558h269.474
	C311.022,29.642,320.674,39.294,320.674,51.2z"/>
<path style="fill:#FCBB9A;" d="M320.674,83.537v194.021c0,11.906-9.651,21.558-21.558,21.558H29.642
	c-11.906,0-21.558-9.651-21.558-21.558V83.537H51.2V18.863c0-5.953,4.826-10.779,10.779-10.779h64.674
	c5.953,0,10.779,4.826,10.779,10.779v64.674H320.674z"/>
<path style="fill:#FC8059;" d="M137.432,18.863v64.674H51.2V18.863c0-5.953,4.826-10.779,10.779-10.779h64.674
	C132.606,8.084,137.432,12.91,137.432,18.863z"/>
<path style="fill:#F75631;" d="M110.484,51.2H78.147c-2.976,0-5.389-2.413-5.389-5.389V35.032c0-2.976,2.413-5.389,5.389-5.389
	h32.337c2.976,0,5.389,2.413,5.389,5.389v10.779C115.874,48.787,113.46,51.2,110.484,51.2z"/>
<path style="fill:#FC8059;" d="M282.947,266.779H45.811c-2.976,0-5.389-2.413-5.389-5.389v-86.232c0-2.976,2.413-5.389,5.389-5.389
	h237.137c2.976,0,5.389,2.413,5.389,5.389v86.232C288.337,264.366,285.923,266.779,282.947,266.779z M115.874,142.821v-10.779
	c0-2.976-2.413-5.389-5.389-5.389H45.811c-2.976,0-5.389,2.413-5.389,5.389v10.779c0,2.976,2.413,5.389,5.389,5.389h64.674
	C113.46,148.211,115.874,145.797,115.874,142.821z M288.337,142.821v-10.779c0-2.976-2.413-5.389-5.389-5.389H142.821
	c-2.976,0-5.389,2.413-5.389,5.389v10.779c0,2.976,2.413,5.389,5.389,5.389h140.126
	C285.923,148.211,288.337,145.797,288.337,142.821z"/>
<path style="fill:#4C4C4C;" d="M355.705,158.451v1.078c0,4.466-3.618,8.084-8.084,8.084s-8.084-3.618-8.084-8.084v-1.078
	c0-4.466,3.618-8.084,8.084-8.084S355.705,153.985,355.705,158.451z M223.663,47.966c-4.465,0-8.084,3.618-8.084,8.084v1.078
	c0,4.466,3.62,8.084,8.084,8.084c4.465,0,8.084-3.618,8.084-8.084v-1.078C231.747,51.585,228.128,47.966,223.663,47.966z
	 M256,47.966c-4.465,0-8.084,3.618-8.084,8.084v1.078c0,4.466,3.62,8.084,8.084,8.084c4.466,0,8.084-3.618,8.084-8.084v-1.078
	C264.084,51.585,260.466,47.966,256,47.966z M379.958,150.366c-4.466,0-8.084,3.618-8.084,8.084v1.078
	c0,4.466,3.618,8.084,8.084,8.084s8.084-3.618,8.084-8.084v-1.078C388.042,153.985,384.424,150.366,379.958,150.366z
	 M288.337,47.966c-4.466,0-8.084,3.618-8.084,8.084v1.078c0,4.466,3.618,8.084,8.084,8.084s8.084-3.618,8.084-8.084v-1.078
	C296.421,51.585,292.803,47.966,288.337,47.966z M471.579,252.766c-4.466,0-8.084,3.618-8.084,8.084v1.078
	c0,4.466,3.618,8.084,8.084,8.084s8.084-3.618,8.084-8.084v-1.078C479.663,256.385,476.045,252.766,471.579,252.766z M512,256
	v226.358C512,498.702,498.702,512,482.358,512H212.884c-16.345,0-29.642-13.298-29.642-29.642V409.6h-61.979
	c-16.345,0-29.642-13.298-29.642-29.642V307.2H29.642C13.297,307.2,0,293.902,0,277.558V51.2c0-16.344,13.297-29.642,29.642-29.642
	h13.474v-2.695C43.116,8.463,51.578,0,61.979,0h64.674c10.401,0,18.863,8.463,18.863,18.863v2.695h153.6
	c16.344,0,29.642,13.298,29.642,29.642v72.758h61.979c16.344,0,29.642,13.298,29.642,29.642v72.758h61.979
	C498.702,226.358,512,239.656,512,256z M328.758,177.853h75.453V153.6c0-7.43-6.044-13.474-13.474-13.474h-61.979V177.853z
	 M145.516,75.453h167.074V51.2c0-7.43-6.044-13.474-13.474-13.474h-153.6V75.453z M59.284,75.453h70.063V18.863
	c0-1.486-1.209-2.695-2.695-2.695H61.979c-1.485,0-2.695,1.208-2.695,2.695V75.453z M16.168,75.453h26.947V37.726H29.642
	c-7.43,0-13.474,6.044-13.474,13.474V75.453z M299.116,291.032c7.43,0,13.474-6.044,13.474-13.474V91.621H16.168v185.937
	c0,7.43,6.044,13.474,13.474,13.474H299.116z M390.737,393.432c7.43,0,13.474-6.044,13.474-13.474V194.021h-75.453v83.537
	c0,16.344-13.298,29.642-29.642,29.642H107.789v72.758c0,7.43,6.044,13.474,13.474,13.474H390.737z M495.832,296.421h-75.453v83.537
	c0,16.344-13.298,29.642-29.642,29.642H199.411v72.758c0,7.43,6.044,13.474,13.474,13.474h269.474
	c7.43,0,13.474-6.044,13.474-13.474V296.421z M495.832,256c0-7.43-6.044-13.474-13.474-13.474h-61.979v37.726h75.453V256z
	 M439.242,252.766c-4.466,0-8.084,3.618-8.084,8.084v1.078c0,4.466,3.618,8.084,8.084,8.084c4.466,0,8.084-3.618,8.084-8.084v-1.078
	C447.326,256.385,443.708,252.766,439.242,252.766z"/>
<g>
</g>
<g>
</g>
<g>
</g>
<g>
</g>
<g>
</g>
<g>
</g>
<g>
</g>
<g>
</g>
<g>
</g>
<g>
</g>
<g>
</g>
<g>
</g>
<g>
</g>
<g>
</g>
<g>
</g>
</svg>
